<?xml version="1.0" ?><svg id="Icons" viewBox="0 0 24 24" xmlns="http://www.w3.org/2000/svg" xmlns:xlink="http://www.w3.org/1999/xlink"><defs><style>.cls-1{fill:url(#linear-gradient);}.cls-2{fill:url(#linear-gradient-2);}.cls-3{fill:url(#linear-gradient-3);}</style><linearGradient gradientUnits="userSpaceOnUse" id="linear-gradient" x1="12" x2="12" y1="1.043" y2="5.129"><stop offset="0" stop-color="#997345"/><stop offset="1" stop-color="#7a5832"/></linearGradient><linearGradient id="linear-gradient-2" x2="12" xlink:href="#linear-gradient" y1="19" y2="23.138"/><linearGradient gradientUnits="userSpaceOnUse" id="linear-gradient-3" x1="12" x2="12" y1="4.83" y2="18.447"><stop offset="0" stop-color="#a6f9ff"/><stop offset="1" stop-color="#3ed0f7"/></linearGradient></defs><rect class="cls-1" height="4" rx="2" width="16" x="4" y="1"/><rect class="cls-2" height="4" rx="2" width="16" x="4" y="19"/><path class="cls-3" d="M6,5H18a0,0,0,0,1,0,0V6a6,6,0,0,1-6,6h0A6,6,0,0,1,6,6V5A0,0,0,0,1,6,5Z"/><path class="cls-3" d="M12,12h0a6,6,0,0,1,6,6v1a0,0,0,0,1,0,0H6a0,0,0,0,1,0,0V18A6,6,0,0,1,12,12Z"/></svg>