<svg id="Layer_1" data-name="Layer 1" xmlns="http://www.w3.org/2000/svg" viewBox="0 0 500 500"><defs><style>.cls-1{fill:#302e2f;}.cls-2{fill:#e9d605;}.cls-3{fill:#e8d505;}.cls-4{fill:#fefefe;}.cls-5{fill:#efefef;}.cls-6{fill:#eee;}</style></defs><title>Paper</title><path class="cls-1" d="M144,183.05c-8-22.37-4.46-42.51,10.7-59.64,13.73-15.51,27.46-30.83,40.83-46.34,6.42-7.46,13.73-10.88,23-10.68,26.74.2,53.49,0,80.23.2,6.77,0,11.77-2,16.58-7.66,24.43-28.81,21.75-25.39,52.06-14.1C395.54,55.31,423.53,66,451.7,76.67c11.59,4.43,15.33,9.87,15,23.57-.36,15.72,2,31.43-2,46.95a39.36,39.36,0,0,1-9.81,17.53c-12.3,13.5-24.43,27.4-36.55,41.31-4.64,5.24-7.84,11.08-7.31,18.54.53,8.87-4.64,14.91-7.67,22-1.07,5-3.74,8.87-7,12.49q-66.59,75-133,150.11c-13.91,15.72-25,17.73-42.43,6.45-6.06-3.83-9.63-3-13.55,2.42-.71,1,.18-.2-.53.81-19.43,21.56-36.73,22.57-57.76,2.82-3.57-3.43-5.88-3.63-9.09,0-9.27,10.88-20.15,11.08-32.09,6.45-11.23-4.43-23-7.25-29.6-20.35-1.25-2.62-3.92-2.62-6.24-3-8-1.41-15.33-4.84-23-7.66a19.39,19.39,0,0,1-12.3-12.09c-8-20.55-4.46-42.51,9.27-58l93.78-106c2.67-3,5-6.45,7.49-9.67,1.6-6.85,6.6-10.68,11.23-15.51C152.53,193.13,145.76,191.52,144,183.05Z"/><path class="cls-2" d="M36.82,385.35c11.41,10.07,24.78,13.9,38.69,15.92,3.57.6,5.71.4,7,5,2,7.25,6.6,11.69,13.19,13.5.36,0,.53.2.89.4,18.19,8.66,36,15.51,49.39-11.28,7,20.15,22.11,19.95,35.12,24,4.64,1.41,9.27-1.61,13-5.24,2-2,3.92-4.23,5.88-6.25,7.31-7.86,12.12-19.54,26-7.25,11.59,10.48,24.25,5,35.3-7.66,46.71-54,94.31-107,141.56-160.38q.8-1.21,1.6,0c0,5.44-.36,10.68-.18,16.12a21.32,21.32,0,0,1-5.53,15.31L253.8,441.36c-8.56,9.67-23.53,8.46-33.34-3.63-4.64-5.64-6.77-4-10.16.4-2.14,2.82-4.81,5-6.77,7.86-10.16,14.51-21.57,19.14-37.44,10.68-8.56-4.63-16.22-8.26-14.8-23.57C145,439.95,140.59,445,136,449.82c-5.53,5.84-11.59,9.07-19.25,5.84-7.13-3-14.62-5.64-21.75-8.66a15.17,15.17,0,0,1-9.27-12.49c-.53-4.43-1.43-6-6.06-5.44-12.66,2-23.89-4.23-34.59-10.68-5.17-3-7.84-8.87-7.67-15.92C37,396.63,36.82,391,36.82,385.35Z"/><path class="cls-2" d="M404.27,246.32h-1.6c2.5-5.64,5.35-11.69,4.64-18.13-1.25-10.88,3-17.93,9.63-25.39,16.22-18.13,33.16-35.46,47.78-55.21,0,4.63-.18,9.47,0,14.1.18,10.28-2.85,18.54-9.45,26C438.15,207,420.14,225.37,404.27,246.32Z"/><path class="cls-3" d="M144,183.05c5,6.25,12.3,7.46,19.08,11.28-5.17,6.25-9.45,12.69-15.87,17.13C142.91,202.4,143.8,192.72,144,183.05Z"/><path class="cls-4" d="M398.75,179.43l-.53.4h-.71c-3,7.86-1.43,16.32-1.25,24.38.18,9.07-2.5,15.92-8.2,22.16-23.71,26.39-46.89,53.39-70.6,79.59-21.75,24-41.54,49.77-63.29,73.74-4.1,4.63-7.13,9.67-7.13,16.72a13.54,13.54,0,0,1-3.21,9.07c-7.67,3.22-13.91-1.21-18.9-6.45-3.92-4.23-.71-21.36,4.1-27,15.87-18.13,31.91-36.07,47.78-54l4.46-5c1.43-1.81,2.85-3.83.89-6s-3.74-.6-5.35,1-3.21,3-4.64,4.43c-3.39,2.62-6.77,6-10.7,7.05-14.08,3.63-23.89,14.1-33.52,25.39s-19.61,22.37-29.6,33.45c-7.49,8.26-12.66,17.73-11.95,30,.18,4-.53,8.06-3.21,11.08-8,1.21-14.62-4.43-21.75-6.65-1.07-.2-2-1.61-2.5-2.82-3.39-6.65,0-31,5.35-36.87l64.9-73.34c1.43-1.61,2.85-3.43,4.28-5,1.6-1.81,2.85-4,.89-6-1.78-2-3.74-.6-5.35,1-1.43,1.61-3.21,3-4.64,4.43A79.74,79.74,0,0,1,206,304.15c-11.41,4.43-19.61,13.7-27.1,23.57-13.37,17.53-28.17,33.45-42.61,49.77-5.88,6.45-9.45,13.5-8.74,23a22.39,22.39,0,0,1-3.39,14.31c-10.52.81-19.25-5.64-28.7-9.07-1.25-.4-2.14-2.22-2.67-3.83-3.39-8.87.36-29.62,6.6-36.47l76.13-86,3.74-4.23c1.6-2,3.74-4.23,1.43-6.85-1.78-2-3.74-.6-5.35,1.21-.89.81-1.78,1.61-2.85,2.42-6.24,5-12.66,9.67-20.32,12.09-7,2.22-12.48,7.25-17.65,13.1-14.44,16.32-28.7,32.84-43.32,49-7.67,8.26-12.48,17.33-11.77,30,.36,6,.18,13.9-9.09,11.08-2.32-.6-4.81-1-6.77-2.22-6.24-3.63-16.94-1.41-18.19-11.48-1.78-13.3-2.14-26.19,8.38-37.88,58.66-65.08,116.6-131.17,174.72-196.85l3.74-4.23c1.78-2.22,4.64-4.43,2.14-7.46-2.85-3.43-4.46,1.21-6.77,2-8.74,8.66-20,11.48-30.49,15.51-14.62,5.64-15.51,7.05-15.69,24.18,0,5.84-.18,11.28-3.57,16.12-7.49-.81-14.08-4.84-21-7.25a6.91,6.91,0,0,1-3.39-2.82c-3-5.24-.71-30.83,3.57-35.66,16-18.34,32.27-36.47,48.49-54.8,3.92-4.43,8.56-5.44,13.73-5.44,26.74.2,53.49-.2,80.23.2,10,.2,17.47-3.63,24.43-11.48,21-23.57,12.3-21.16,39.76-10.88,29.77,11.08,59.73,21.36,89,34.25,1.43,5.24-2,8.06-4.46,11.28A522.8,522.8,0,0,1,411.94,145c-6.42,6.85-10.52,14.1-9.81,24.58C402.13,173.18,401.78,177,398.75,179.43Z"/><path class="cls-5" d="M243.64,405.5c-1.78-13.5,3-23,11.41-32.84,44.39-51.78,89.5-102.76,134.61-153.53,3.92-4.43,5-9.07,5.35-15.11.53-8.06-2.85-16.72,2.32-24.18-2.5,13.9-1.07,28-1.07,42.11,0,9.27-2.32,16.52-8.38,23.17-45.82,51.18-91.1,102.76-136.75,154.14C249.16,401.87,247.56,405.7,243.64,405.5Z"/><path class="cls-5" d="M398.75,179.43c-2.5-17.73,3.21-31.23,15.33-42.72,14.26-13.5,25.85-30,38.15-45.74.71.6,2,.81,2.14,1.61,3.21,14.51,1.07,29.22,1.25,43.92,0,7.46-5.53,11.48-9.81,16.12-11.95,13.5-23.89,27.2-35.84,40.5-2,2.22-3.39,5.44-6.6,6C399.82,193.13,406.59,184.06,398.75,179.43Z"/><path class="cls-5" d="M124.19,415.17c-3-20.75,3.92-36.07,18-49.77,14.62-14.51,27.46-31.23,40.65-47.55,11.23-13.7,25.67-19.75,41.36-23.17-20.5,23.37-40.83,46.75-61.33,70.12-5,5.84-10.16,11.28-11.23,19.95-.53,4-3.57,6-5.88,8.46C138.45,400.26,132.92,409.73,124.19,415.17Z"/><path class="cls-5" d="M183,419.6c-2.85-20.75,3.92-36.87,18.19-50.17a269.14,269.14,0,0,0,28.35-32C241,322.28,255.94,316.64,272,312.61c-14.8,16.92-29.42,33.85-44.22,50.78-4.64,5.24-9.09,10.48-10.34,18.34-.18.6,0,1.61-.36,2C206,395.82,196.75,410.33,183,419.6Z"/><path class="cls-5" d="M70.16,387.36c5.35,0,6.42-4,5.88-8.87-2-15.51,4.28-26.6,14.08-36.87,11.59-11.89,23.18-24.18,33.16-37.68,13.19-17.73,30.31-26,49-31.84-25.14,28.61-50.28,57.42-75.42,86-4.81,5.44-9.09,10.88-10.7,18.94C84.43,385.55,77.12,389.58,70.16,387.36Z"/><path class="cls-6" d="M177.67,185.07c0-7.66.18-15.51,0-23.17-.18-9.67,3.57-15.72,11.77-18.74,12.66-4.43,25.32-9.47,38-14.1C211.19,148.4,195,167.34,177.67,185.07Z"/></svg>