<svg id="Layer_1" data-name="Layer 1" xmlns="http://www.w3.org/2000/svg" viewBox="0 0 500 500"><defs><style>.cls-1{fill:#302e2f;}.cls-2{fill:#e9d605;}.cls-3{fill:#fefefe;}.cls-4{fill:#efefef;}.cls-5{fill:#343233;}</style></defs><title>Quentin_YouTube CoverArtboard 1</title><path class="cls-1" d="M85,343.34c-.22-5.41-.65-10.83-.43-16.24.22-8,.65-15.38-8.45-20.14-4.76-2.38-6.28-8.45-6.28-14.29,0-6.5-.22-13,0-19.49C70,265.6,67,260.4,62.47,253.68c-7.58-11.26-16-20.57-25.34-30.32-9.53-10-5.2-43.09,5.2-53.71,20.57-21.22,41.79-42,62.58-62.8,6.71-6.71,15.16-8.88,24.69-8.88,35.95.22,72.11-.22,108.06.22,7.8,0,13.64-2.17,19.06-7.8,12.78-13.21,26-26,38.76-39.2,7.58-7.58,16.24-11.48,27.07-11.26,11.48.22,23.17.43,34.65,0,10.83-.43,19.49,3.68,27.07,11.26,23.39,23.39,46.78,47,70.38,70.38,7.58,7.58,11.26,16.46,11,27.07,0,5.85-.65,11.69,0,17.32,2.38,20.57-2.17,38.55-19.06,52.19-1.3,5.2-4.55,8.88-8.23,12.56l-32.92,32.92c-6.06,5.85-9.31,12.78-9.1,21.22.43,13.21-5.2,23.39-14.29,32.48q-53.6,53.27-107,107.19c-12.13,12.34-25.34,15.81-42.66,9.74-36.38-13-73-24.9-109.79-36.6-16.67-5.41-28.15-14.51-28.8-33.13-.22-3.9-2.17-6.71-4.55-9.53C86.51,351.57,83.48,348.32,85,343.34Z"/><path class="cls-2" d="M85,343.34c2.38,3,4.33,6.93,7.58,8.88,5,3.25,6.06,7.15,6.06,12.56,0,16,4.11,21.44,19.71,26.64,39.85,13.43,79.91,26.64,119.75,40.28,12.56,4.33,22.09,1.52,31.18-7.58,37-37.46,74.28-74.49,111.53-111.53,8.45-8.45,13.21-18,12.13-29.88-.87-8.23,2.38-14.29,8.45-19.92,15.38-14.73,30.32-29.67,45.48-44.61,21.22,10.18,24.69,34.22,6.93,52.19C410.47,313.89,367.16,357,323.85,400.29c-18.62,18.62-37.46,37-55.65,55.87-7.8,8-15.81,10-26.2,6.28q-79.91-27-159.82-53.49c-21-7.15-27.72-25.77-16-45.26C70.91,355.47,77.84,349.19,85,343.34Z"/><path class="cls-3" d="M254.12,418.7c-4.11,3.46-8.45,1.08-12.34-.22q-59.44-19.81-118.67-39.63c-9.74-3.25-13.21-10.18-10.61-19.92,1.73-6.28,5.85-2.38,8.45-1.52,26,8.45,52,17.11,77.74,25.77l19.49,6.5c3.25,1.08,7.58,3.68,9.31-.87,1.73-5-3.68-5.2-6.71-6.28-26-8.66-51.76-17.32-77.74-26-11.26-3.68-22.52-7.8-33.78-11C101,343.12,97.12,339,98,330.13c.65-5.63.22-11.48.22-18.84,9.74,3.25,18.84,5.85,27.94,8.88,29.45,9.74,58.69,19.71,87.92,29.45,2.38.87,4.76,1.73,7.15,2.38s5.41,1.3,6.5-1.73c1.3-3-1.3-4.55-3.9-5.41-1.95-.65-4.11-1.3-6.06-2.17C176.81,329,135.88,315.19,95,302c-8.66-2.82-12.78-6.93-11.69-16.24a97.69,97.69,0,0,0,0-19.49c-.65-7.58,1.73-8.23,8.45-5.85,40.5,13.86,81.21,27.29,121.92,40.71a8,8,0,0,0,3,.87c3.9.65,9.1,5.41,11-.65,1.73-5.2-4.76-5.2-8.23-6.28l-89-29.88c-17.11-5.63-34-11.69-51.11-16.89-7.36-2.17-11-6.06-10.39-13.86a16.28,16.28,0,0,0,0-3.25c-.22-43.74,2.17-48.29,35.95-75.79,5-4.11,9.74-3.25,15.16-1.3,22.74,7.58,45.69,15.16,68.65,22.74,3.46,1.08,8.45,5,10-.87,1.52-5.2-4.55-5.2-8-6.5-23.17-7.8-46.56-15.38-69.51-23.39-9.31-3.25-16.67-1.52-23.39,5.63C92.14,157.75,86.51,164,80,169.23,65.5,180.71,58.79,195,61.39,213.62c.43,2.6,2.17,7.58-2.17,7.8s-10.61-1.3-11-6.93c-.87-14.08-4.33-28.37,8.45-40.28,18.41-17.11,36.16-35.3,53.71-53.49,6.5-6.71,13.43-9.74,23-9.53,46.56.43,93.12.22,139.68.22h7.58c2.82,0,5.63-.65,5.63-3.46.22-3.9-3-4.33-6.06-4.33H265.38C281,87.37,295.7,72,310.86,56.84c3-3,7.8-3.25,12.13-3.46,43.53-1.3,43.53-1.3,74.28,29.23,3.9,3.9,7.36,7.8,11,11.69,3.68,6.5-1.3,10.18-4.76,13.86-11.91,12.56-24.47,24.69-36.6,36.81-32.7,32.27-64.75,64.75-97,96.58-8,7.8-11.69,16.24-11.69,27.72.43,43.74.22,87.27.22,131C258.45,406.79,258.23,413.28,254.12,418.7Z"/><path class="cls-4" d="M254.12,418.7c0-51.11.22-102.21-.22-153.54,0-9.74,2.82-17.11,9.74-23.82q68.21-67.56,136-136c3.25-3.25,7.58-5.85,8-11,12.78,12.56,25.77,25.12,38.55,37.9a11.35,11.35,0,0,1,2.17,2.38c5.85,8,6.5,55-.22,61.93-19.27,19.92-39.2,39-59.12,58.69-2.38-5-.65-9.53-1.3-14.08-.22-2.82,0-6.28-4.11-6.28s-3.9,3.46-3.9,6.28c0,14.08-.22,28.15,0,42.23a23.56,23.56,0,0,1-7.36,18.41c-37.9,37.68-75.58,75.58-113.47,113.26A20,20,0,0,1,254.12,418.7Z"/><path class="cls-5" d="M228.13,173.56c0,3.25-.43,6.5,0,9.74,4.33,23.82-12.56,35.95-27.29,48.94-4.11,3.68-10,3.68-15.38,1.95-22.52-7.58-45-14.94-67.35-22.52-3-1.08-7.15-1.52-5.85-5.85,1.52-4.33,5-2.38,8.23-1.3,21,7.15,42.23,13.86,63.23,21.22,7.36,2.6,12.34.87,18.41-4.11,14.51-11.69,20.79-25.77,18.41-44.18-1.08-8.88-.22-18-.22-27.07,0-3.25-.22-7.36,4.33-7.15,3.68.22,3.46,3.9,3.46,6.93Q228.13,161.54,228.13,173.56Z"/></svg>