<svg id="Layer_1" data-name="Layer 1" xmlns="http://www.w3.org/2000/svg" viewBox="0 0 500 500"><defs><style>.cls-1{fill:#302e2f;}.cls-2{fill:#e9d605;}.cls-3{fill:#fefefe;}.cls-4{fill:#efefef;}</style></defs><title>Quentin_YouTube CoverSciissors</title><path class="cls-1" d="M95,355.42c1.81-10.49,10-16.54,16.86-23.48,2.54-2.49,4.89-5.16,7.25-7.83,2.36-9.6,10.51-14.76,17-21.16,4.71-4.62,7.43-8.71,5.8-16.18-1.45-6.58,2.36-13.87,1.27-20.81-.36-1.78,1.63-5.16-2.72-4.62-15.77,5-31.72,9.25-47.13,15.12-19.21,7.29-35.89-1.07-51.66-8.89-12.14-6-11.24-45.71,0-53.53,2.9-2,6.53-3,10-4.27,27.92-9.25,56-18.5,84.11-27.39,5.62-1.78,8.88-4.09,8-10.49-2.36-15.47,4-27,15.77-37.35,13.78-12.09,26.28-25.26,39.15-38.24,6.71-6.76,14.5-10.14,24.11-10,16,.36,32.08-.18,48,.18,7.43.18,13.23-1.78,18.31-7.29,10.33-10.85,21.39-21,31.9-31.48a28.38,28.38,0,0,1,21.75-8.89c50.21.71,36.43-5.51,71.6,28.46,12.51,12.09,24.47,24.54,37.16,36.28,8.34,7.65,12,16.54,11.42,27.75a209.53,209.53,0,0,0,0,21.34c.54,9.6-2.18,18.14-8.7,25.26-.91,4.62-4,7.83-7.25,11-11.24,11-22.48,22.23-33.9,33.26-5.26,5-8.34,10.67-8,18,.36,10.14-4,18.5-11.06,25.43q-45.68,45.09-91.54,89.82c-9.79,9.43-20.66,12.09-33.9,7.47-16.5-5.87-33.17-10.67-49.67-16.36-6.53-2.31-11.24-1.07-16.13,3.73-14.32,14.41-29.18,28.28-43.32,42.86-11.06,11.38-23.38,14.94-38.43,8.71-4.71-2-9.79-3-14.5-5.16-10.88-5-13.78-10.49-12.14-22.23C95.14,367.87,93.69,361.65,95,355.42Z"/><path class="cls-2" d="M95,355.42v20.45c0,8.36,3.81,14.23,11.78,17.07s16,5.51,23.93,7.83c8.88,2.49,15.77-1.07,21.93-7.11,16.5-16.36,33.35-32.55,49.85-49.09,4.17-4.27,7.79-5.16,13.41-3.2,18.49,6.4,37.16,11.92,55.65,18.5,10.69,3.73,19,1.78,27-6,31-30.77,62.18-61.18,93.53-91.77,6.89-6.58,10.88-14.23,10-23.65-.73-7.11,2-12.27,7.25-17.25,15.23-14.23,30.09-29,45.14-43.57,17.22,16.36,17.22,35.39,0,52.29-29.73,29.35-59.09,59.23-89.91,87.68C342,338.35,320.64,359.69,298.71,381c-6.71,6.58-14.14,6.94-22.48,5.69a9.67,9.67,0,0,1-4.35-1.42c-18.31-10.49-31.54-5.51-45.14,10.14-18.13,20.81-39.52,39.13-59.09,58.87-8.34,8.36-16.86,11.38-28.28,6.4-9.43-4.09-19.76-5.51-26.1-15.65-2.72-4.27-12-4.45-18.13-6.58-14.14-4.62-17.22-9.43-17.95-24-.73-14.76.18-28.46,13.78-38.06,3.08-2.13,2.54-5.69,2.72-9.07C93.69,363.43,92.42,359.16,95,355.42Z"/><path class="cls-2" d="M140.64,261.16c2.54-1.6,2.9-.18,3.26,2,.91,10.32-3.26,21.34,4.71,30.77,1.27,1.42-.91,3.2-2.18,4.27l-27,26c-2-16,3.44-29,16.31-39.13C143.9,278.41,143.9,270.06,140.64,261.16Z"/><path class="cls-3" d="M132.85,389.39c-6.89-2.13-13.78-4.09-20.66-6.22a8.18,8.18,0,0,1-5.44-4.27c-3.44-7.83.54-26.86,6.89-33.08l101.87-100,3.26-3.2c3.63-3.91,9.06-7.47,5.44-13.52-3.81-6-10-4.27-15.41-2.31-39.52,12.81-79,25.08-118.19,38.77-16,5.51-28.1-2.49-41.51-6.76-5.44-1.78-4.71-33.61.18-36.64,2-1.24,4.53-1.6,6.89-2.31q83.47-27.48,167.13-54.78c15.23-5,21-15.65,16.5-30.77-.54-1.78-1.27-3.38-3.44-3.2s-2.9,1.78-2.9,3.73v2.67c-.73,18.14-.73,18.14-18.49,23.83-19.58,6.4-39.34,12.81-58.91,19-3.63-16.54,0-29.17,13.23-40.19,13.41-11,25.2-24,37.34-36.28,4.71-4.8,10-6.76,16.86-6.76,26.83.18,53.84.18,80.66,0,3.08,0,8,1.42,8-3.2s-4.89-3-8-3.38c-2.9-.18-5.8,0-10.15,0,13.41-13.34,25.74-25.79,38.25-38.06,2.36-2.31,5.8-3.2,9.24-3.2h32.63A15.74,15.74,0,0,1,385.53,54c9.79,9.6,19.4,19.39,29.18,29.17,1.45,5.87-3.26,8.54-6.53,11.74q-35.62,35.22-71.6,70.43c-60.54,59.4-120.91,119-181.81,178-10,9.6-16.13,19.56-14.14,33.44a20,20,0,0,1-.54,8C138.83,388.15,137.38,391.17,132.85,389.39Z"/><path class="cls-4" d="M132.85,389.39c4.89-1.24,4.53-5.34,4-8.54-2.9-18.32,5.62-30.59,18.67-43.22C239.61,256.18,323,173.84,406.56,91.85c2.72-2.67,5.26-5.69,7.79-8.54,10.69,10.32,21.39,20.63,32.27,30.95a9.39,9.39,0,0,1,1.81,2c4.35,5.87,5.26,45,.18,50.15-16.31,16.36-33.17,32.37-50,48.55-1.81-3.73-.73-7.29-1.09-10.67-.36-2.67.18-6-3.81-5.69-3.26.18-2.9,3.2-2.9,5.51,0,11.56-.18,23.12,0,34.68A17.63,17.63,0,0,1,385,253q-47.85,46.69-95.35,93.55c-1.63,1.6-3.08,3.91-6,3.56-3.44-3-3.63-7.11-3.81-11.38,0-12.63-.18-25.26,0-37.88.18-8.18-2-14.41-10.88-17.07a8.76,8.76,0,0,1-6-5c.54-5.51-1.45-6.76-6-3.38a51,51,0,0,0-4.53,4.27q-53.56,52.56-107.31,105.11C142.27,388.15,139,393.13,132.85,389.39Z"/><path class="cls-3" d="M263.36,278.77c17.4,3,20.3,6.4,20.48,23.83v47.49c-1.63,1.07-3.44.71-5.26.18-2.54-.71-5.26-1.42-7.79-2.31-19-6.22-38.07-12.63-57.28-18.85,9.06-13.52,9.79-13.87,24.29-9.07l17.95,5.87c2.72.89,6.34,3.2,7.61-1.07,1.09-3.91-3.26-4.09-6-5-8.52-2.85-17-5.69-25.74-8.54C242.51,300.11,253,289.44,263.36,278.77Z"/><path class="cls-3" d="M220.76,234c-6.89,6-13.05,11.2-18.85,16.54-2,2-4,2.13-6.53,1.6-1.45-.36-3.81-.18-3.63,1.42.91,13.16-12.33,16.18-18.13,24.54-2.18,3.2-5.44,5.51-8.16,8.18-4,3.73-7.43,1.78-9.61-2-3.44-5.69,0-27,4.71-31.84,2.36-2.31,4.35-4.8,7.79-5.87,14.5-4.62,29-9.43,43.69-14.05C213.69,231.82,215.87,230.93,220.76,234Z"/></svg>